<?xml version="1.0" encoding="UTF-8"?><svg id="Layer_1" xmlns="http://www.w3.org/2000/svg" viewBox="0 0 143.76 144.57"><defs><style>.cls-1{fill:#231f20;}.cls-2{fill:#fff;}</style></defs><rect class="cls-1" x="0" y="0" width="143.76" height="144.57" rx="71.88" ry="71.88"/><path class="cls-2" d="M86.89,78.78l1.74,9.35,8.82.35s-7.67-1.67-10.56-9.7"/><path class="cls-2" d="M79.87,88.81c-1.46,6.28-12.23,17.7-16.46,17.7-1.3,0-3.01-1.28-3.01-3.66,0-4.57,9.4-13.06,17.08-14.73.1-.71,0-.94.03-1.86.04-1.58-1.32-1.89-3-1.89-3.6,0-10.64,4.39-14.7,4.39-1.92,0-4.06-2.07-4.06-4.88,0-11.59,18.78-29.63,28.53-29.63,2.47,0,3.68,2.62,3.68,4.88,0,4.82-7.91,13.9-8.66,13.9-.25,0-.79-.61-.79-.91,0-.12.08-.24.21-.3,3.6-2.5,8.66-8.9,8.66-12.44,0-1.34-.59-2.68-1.88-2.68-9.16,0-27.11,17.2-27.11,27.68,0,1.52.84,2.93,2.26,2.93,4.81,0,10.63-5,15.14-5,2.18,0,4.22,2.57,4.22,5.44,1.49-.1,12.15-.12,19.91,1.07h-20.05ZM77.4,89.09c-6.56,1.82-15.2,9.61-15.2,14.98,0,.85.46,1.71,1.38,1.71,3.1,0,12.65-10.04,13.81-16.69Z"/><path class="cls-2" d="M47.9,87.97c1.51-.27,4.83-5.65,5.84-8.06l15.89-42.14h1.68l16.04,42.22,2.72,7.63s.55.42-.43.57l-1.69.37h-2.25l-1.24-.24-1.93-.05-2.67-8.12-12.54-33.07-10.92,28.8-1.12,2.94s-3.42,9.02.58,9.02h3.76v.98h-15.5l2.93-.6"/></svg>